<svg width="140" height="35" viewBox="0 0 140 35" fill="none" xmlns="http://www.w3.org/2000/svg">
<g clip-path="url(#clip0_138_405)">
<path d="M5.49991 0.300293V28.8528H15.8308V33.7704H0V0.300293H5.49991ZM35.2291 14.496V11.4859H40.4565V33.7828H35.2539V30.7604C34.5354 31.8752 33.5445 32.7424 32.2563 33.3617C30.9679 34.0183 29.6549 34.3279 28.3543 34.3279C26.6572 34.3279 25.1088 34.0183 23.7091 33.3988C22.3408 32.8058 21.1095 31.9372 20.092 30.8471C19.0832 29.7655 18.285 28.5053 17.7384 27.1309C17.1755 25.695 16.8938 24.1643 16.9085 22.622C16.9085 21.0613 17.1935 19.5624 17.7508 18.1626C18.2909 16.7702 19.0894 15.4925 20.1044 14.3969C21.1126 13.3009 22.3353 12.4239 23.6967 11.8204C25.1088 11.201 26.6696 10.8914 28.3419 10.8914C29.6425 10.8914 30.9432 11.2134 32.2314 11.8452C33.5197 12.4893 34.5107 13.3564 35.2044 14.4713L35.2291 14.496ZM34.7584 25.3596C35.0848 24.488 35.2526 23.565 35.2539 22.6344C35.2539 21.6682 35.0805 20.7763 34.7584 19.9093C34.4618 19.0749 34.0076 18.3053 33.4206 17.6424C32.8349 17.0046 32.1273 16.4907 31.3396 16.1311C30.4926 15.7425 29.571 15.5438 28.6391 15.5489C27.6482 15.5489 26.7563 15.7595 25.9635 16.1435C25.1869 16.5043 24.4884 17.0134 23.9072 17.6424C23.3217 18.3021 22.8751 19.0731 22.5942 19.9093C22.287 20.7848 22.132 21.7065 22.1359 22.6344C22.1359 23.5882 22.2845 24.4925 22.5942 25.3596C22.8915 26.2267 23.3375 26.9699 23.9072 27.5893C24.4834 28.2365 25.1823 28.7629 25.9635 29.1376C26.7563 29.5093 27.6482 29.7075 28.6391 29.7075C29.6301 29.7075 30.5344 29.5217 31.3396 29.1376C32.1297 28.7711 32.8374 28.2486 33.4206 27.6017C34.0036 26.9497 34.4576 26.1931 34.7584 25.372V25.3596ZM44.5691 33.7828V11.4859H58.7152V16.6142H49.7717V33.7704H44.5691V33.7828ZM77.6057 14.496V11.4859H82.8083V33.7828H77.6057V30.7604C76.912 31.8752 75.9087 32.7424 74.6328 33.3617C73.3321 34.0183 72.0314 34.3279 70.7184 34.3279C69.0214 34.3279 67.473 34.0183 66.0733 33.3988C64.705 32.8058 63.4737 31.9372 62.4561 30.8471C61.4474 29.7655 60.6492 28.5053 60.1026 27.1309C59.544 25.6942 59.2664 24.1635 59.285 22.622C59.285 21.0613 59.5575 19.5624 60.115 18.1626C60.655 16.7702 61.4536 15.4925 62.4686 14.3969C63.4768 13.3009 64.6995 12.4239 66.0609 11.8204C67.473 11.201 69.0337 10.8914 70.7061 10.8914C72.0067 10.8914 73.3073 11.2134 74.5956 11.8452C75.8838 12.4893 76.8872 13.3564 77.5685 14.4713L77.6057 14.496ZM77.135 25.3596C77.4529 24.4865 77.6122 23.5636 77.6057 22.6344C77.6057 21.6682 77.4447 20.7763 77.135 19.9093C76.8421 19.0758 76.3921 18.3063 75.8096 17.6424C75.2165 17.0019 74.5003 16.4879 73.7038 16.1311C72.8986 15.7595 71.9943 15.5489 71.0157 15.5489C70.0248 15.5489 69.1329 15.7595 68.3277 16.1435C67.5511 16.5043 66.8526 17.0134 66.2714 17.6424C65.6859 18.3021 65.2393 19.0731 64.9584 19.9093C64.6553 20.7855 64.5045 21.7072 64.5124 22.6344C64.5124 23.5882 64.661 24.4925 64.9584 25.3596C65.2681 26.2267 65.7016 26.9699 66.2714 27.5893C66.8475 28.2365 67.5465 28.7629 68.3277 29.1376C69.1329 29.5093 70.0248 29.7075 71.0157 29.7075C72.0067 29.7075 72.8986 29.5217 73.7161 29.1376C74.515 28.7739 75.2316 28.2513 75.822 27.6017C76.4005 26.9487 76.8502 26.1922 77.1473 25.372L77.135 25.3596ZM103.718 11.4859H109.007L100.46 33.7828H93.8948L85.3477 11.4859H90.6124L97.1771 28.5554L103.718 11.4983V11.4859ZM120.366 10.9161C127.464 10.9161 132.308 17.2088 131.391 24.5668H114.086C114.086 26.4744 116.043 30.1905 120.651 30.1905C124.615 30.1905 127.278 26.7221 127.278 26.7221L130.796 29.4473C127.637 32.7919 125.061 34.3403 121.01 34.3403C113.801 34.3403 108.921 29.7571 108.921 22.6096C108.921 16.1311 113.975 10.8914 120.354 10.8914L120.366 10.9161ZM114.111 20.702H126.621C126.572 20.2685 125.879 15.0535 120.329 15.0535C114.755 15.0535 114.161 20.2808 114.111 20.702ZM134.797 33.7457V0.300293H140V33.7704H134.797V33.7457Z" fill="#FF2D20"/>
</g>
<defs>
<clipPath id="clip0_138_405">
<rect width="140" height="35" fill="white"/>
</clipPath>
</defs>
</svg>
