<svg width="150" height="78" viewBox="0 0 150 78" fill="none" xmlns="http://www.w3.org/2000/svg">
<g clip-path="url(#clip0_139_433)">
<path d="M0.765358 70.5739H5.68407V51.214L13.2992 68.0917C14.1972 70.1347 15.4269 70.8567 17.8395 70.8567C20.2523 70.8567 21.4352 70.1347 22.3333 68.0917L29.9484 51.214V70.5739H34.8671V51.2462C34.8671 49.3607 34.1104 48.4478 32.549 47.9776C28.8121 46.8153 26.3048 47.8213 25.1697 50.3357L17.6971 66.9926L10.4615 50.3345C9.3731 47.8213 6.81916 46.8153 3.08223 47.9765C1.52089 48.4478 0.76416 49.3595 0.76416 51.2451V70.5739H0.765358ZM38.9585 54.8144H43.8759V65.4807C43.8305 66.0594 44.0627 67.4198 46.7568 67.4628C48.1313 67.4843 57.3677 67.4628 57.4539 67.4628V54.7619H62.3834C62.4062 54.7619 62.3786 72.0823 62.3786 72.1539C62.4049 76.4262 57.0612 77.3534 54.597 77.425H39.065V74.1265C39.0914 74.1265 54.5863 74.1301 54.6246 74.1253C57.7915 73.7924 57.4168 72.2243 57.4156 71.6969V70.4104H46.9615C42.0979 70.3662 38.9992 68.2505 38.9596 65.816C38.9573 65.5929 39.0662 54.9218 38.9585 54.8144Z" fill="#00618A"/>
<path d="M66.1758 70.574H80.3189C81.9749 70.574 83.5841 70.2291 84.8607 69.6324C86.9884 68.6586 88.0287 67.3388 88.0287 65.6084V62.0259C88.0287 60.6118 86.8466 59.2908 84.5289 58.4125C83.2988 57.9398 81.7841 57.6905 80.3177 57.6905H74.3573C72.3709 57.6905 71.425 57.0938 71.189 55.774C71.1424 55.6164 71.1424 55.4911 71.1424 55.3336V53.102C71.1424 52.9767 71.1424 52.8502 71.189 52.6938C71.425 51.6879 71.9458 51.4051 73.6963 51.2475L74.1693 51.2165H88.2178V47.9491H74.4064C72.4199 47.9491 71.3795 48.0744 70.4336 48.3572C67.5012 49.2689 66.2225 50.7141 66.2225 53.2285V56.0877C66.2225 58.2883 68.7309 60.1738 72.9396 60.6142C73.4138 60.644 73.8855 60.6775 74.3584 60.6775H79.4676C79.6567 60.6775 79.8459 60.6775 79.9884 60.7073C81.5501 60.8326 82.2105 61.1165 82.6849 61.6811C82.9686 61.9639 83.0624 62.2479 83.0624 62.5605V65.421C83.0624 65.7659 82.8259 66.2063 82.3531 66.5834C81.9284 66.9605 81.2181 67.2122 80.2722 67.2755L79.7514 67.3066H66.1758V70.574ZM118.717 64.8864C118.717 68.2481 121.224 70.1336 126.284 70.5119C126.757 70.5429 127.23 70.574 127.703 70.574H140.521V67.3066H127.609C124.724 67.3066 123.637 66.5834 123.637 64.8542V47.9467H118.718L118.717 64.8864ZM91.1681 65.0559V53.4028C91.1681 50.4432 93.2542 48.6472 97.3776 48.0803C97.8039 48.0171 98.2792 47.9861 98.7039 47.9861H108.042C108.517 47.9861 108.943 48.0171 109.416 48.0803C113.539 48.6472 115.626 50.442 115.626 53.4028V65.0559C115.626 67.4593 114.74 68.7433 112.699 69.5811L117.546 73.9404H111.833L107.913 70.4129L103.966 70.6623H98.7039C97.8039 70.6623 96.8567 70.537 95.814 70.253C92.6852 69.4033 91.1681 67.7648 91.1681 65.0559ZM96.4768 64.773C96.4768 64.9306 96.524 65.0893 96.5713 65.2779C96.8558 66.6323 98.1365 67.3877 100.078 67.3877H104.547L100.443 63.6942H106.155L109.734 66.9163C110.395 66.5643 110.829 66.0297 110.98 65.3411C111.028 65.1835 111.028 65.0261 111.028 64.8685V53.6891C111.028 53.5638 111.028 53.4051 110.98 53.2476C110.696 51.9874 109.416 51.2643 107.521 51.2643H100.078C97.8985 51.2643 96.476 52.2094 96.476 53.6891L96.4768 64.773Z" fill="#E48E00"/>
<path d="M144.849 42.5228C141.826 42.4405 139.516 42.7208 137.54 43.5502C136.979 43.7865 136.084 43.7925 135.993 44.493C136.301 44.8164 136.349 45.2974 136.595 45.6935C137.066 46.4537 137.862 47.4728 138.572 48.0062C139.347 48.5898 140.147 49.2152 140.981 49.7211C142.459 50.6209 144.111 51.134 145.538 52.0339C146.377 52.5661 147.21 53.2344 148.031 53.8346C148.437 54.1294 148.707 54.5912 149.235 54.7762V54.6915C148.958 54.3406 148.887 53.8585 148.632 53.4909L147.515 52.3764C146.421 50.93 145.035 49.6615 143.558 48.6065C142.383 47.7652 139.75 46.6279 139.26 45.2639L139.173 45.1792C140.007 45.0849 140.984 44.7842 141.753 44.579C143.046 44.2328 144.202 44.3224 145.536 43.9787L147.342 43.4631V43.1218C146.668 42.4321 146.185 41.5179 145.45 40.8939C143.526 39.2602 141.423 37.6276 139.26 36.2648C138.06 35.5106 136.577 35.0201 135.303 34.3805C134.877 34.1645 134.125 34.0535 133.842 33.6943C133.172 32.8458 132.81 31.7706 132.294 30.7813C131.216 28.7108 130.155 26.4483 129.198 24.268C128.547 22.7823 128.121 21.3167 127.308 19.9838C123.403 13.5862 119.2 9.72449 112.691 5.9296C111.305 5.1217 109.637 4.80426 107.876 4.38778L105.038 4.21594C104.462 3.97607 103.861 3.27199 103.319 2.93069C101.161 1.57265 95.6292 -1.38092 94.0322 2.50347C93.0238 4.95462 95.5412 7.34612 96.4404 8.58837C97.0714 9.45953 97.8809 10.4357 98.3317 11.4155C98.6292 12.0599 98.679 12.7055 98.9341 13.3869C99.5578 15.0648 100.103 16.8918 100.911 18.442C101.319 19.2272 101.771 20.0542 102.287 20.7559C102.603 21.1855 103.146 21.3765 103.231 22.0412C102.701 22.781 102.67 23.9315 102.372 24.8682C101.028 29.0915 101.535 34.3411 103.49 37.4665C104.09 38.4272 105.503 40.4845 107.445 39.6945C109.144 39.0048 108.766 36.8674 109.252 34.9807C109.362 34.5547 109.294 34.2396 109.509 33.9532V34.0392L111.057 37.124C112.203 38.963 114.235 40.8831 115.958 42.1803C116.851 42.8521 117.555 44.0156 118.71 44.4082V44.3211H118.625C118.4 43.9739 118.051 43.8307 117.764 43.5502C117.091 42.8927 116.342 42.0765 115.787 41.3223C114.219 39.2029 112.835 36.8817 111.573 34.4664C110.971 33.3136 110.448 32.0415 109.94 30.8672C109.744 30.415 109.746 29.7299 109.34 29.4972C108.781 30.3565 107.963 31.0522 107.532 32.0677C106.845 33.6907 106.756 35.6705 106.502 37.7231L106.329 37.8078C105.131 37.5202 104.71 36.291 104.265 35.2373C103.139 32.5726 102.93 28.28 103.921 25.2119C104.178 24.4171 105.335 21.917 104.866 21.1831C104.642 20.4516 103.903 20.0292 103.491 19.4682C102.98 18.7773 102.469 17.868 102.116 17.0684C101.194 14.9908 100.763 12.6578 99.795 10.5562C99.3303 9.55142 98.5477 8.53588 97.9029 7.64327C97.1912 6.65277 96.3923 5.92483 95.8387 4.72908C95.6423 4.30425 95.3757 3.62284 95.6667 3.18606C95.7588 2.8913 95.8917 2.76839 96.1836 2.67173C96.6817 2.28866 98.0708 2.79942 98.5909 3.01423C99.9703 3.58585 101.121 4.12882 102.29 4.89973C102.85 5.27087 103.416 5.98688 104.094 6.18498H104.868C106.079 6.46184 107.435 6.26971 108.566 6.61221C110.566 7.21843 112.357 8.16002 113.982 9.18393C118.938 12.3034 122.989 16.7426 125.762 22.0387C126.207 22.892 126.401 23.7047 126.793 24.6092C127.586 26.4327 128.584 28.3099 129.372 30.0939C130.159 31.8732 130.927 33.6693 132.038 35.1502C132.623 35.9283 134.881 36.346 135.907 36.778C136.627 37.081 137.805 37.3973 138.486 37.8055C139.788 38.5883 141.05 39.5203 142.27 40.3771C142.879 40.8091 144.756 41.7483 144.849 42.5228ZM106.415 9.87366C105.785 9.86172 105.338 9.94289 104.867 10.0455V10.1302H104.953C105.254 10.7472 105.784 11.1434 106.157 11.6733L107.018 13.4728L107.103 13.3881C107.635 13.0145 107.879 12.4167 107.876 11.5026C107.662 11.2782 107.631 10.9978 107.446 10.7317C107.202 10.3737 106.725 10.1731 106.415 9.87366Z" fill="#00618A"/>
</g>
<defs>
<clipPath id="clip0_139_433">
<rect width="150" height="78" fill="white"/>
</clipPath>
</defs>
</svg>
