<svg width="161" height="45" viewBox="0 0 161 45" fill="none" xmlns="http://www.w3.org/2000/svg">
<g clip-path="url(#clip0_139_445)">
<path d="M147.687 15.9536C147.296 15.9536 146.917 16.0328 146.581 16.2195L135.952 22.2509C135.264 22.6401 134.846 23.3758 134.846 24.158V36.1991C134.846 36.981 135.264 37.7155 135.952 38.1059L138.728 39.6777C140.076 40.3311 140.574 40.3206 141.188 40.3206C143.184 40.3206 144.324 39.1301 144.324 37.0609V25.1815C144.324 25.0135 144.176 24.8933 144.008 24.8933H142.677C142.506 24.8933 142.361 25.0166 142.361 25.1815V37.067C142.361 37.9842 141.389 38.9069 139.811 38.1315L136.925 36.4685C136.823 36.414 136.745 36.3144 136.745 36.2025V24.1614C136.745 24.0474 136.822 23.9309 136.925 23.8732L147.532 17.8634C147.632 17.8073 147.75 17.8073 147.848 17.8634L158.455 23.8732C158.556 23.9327 158.636 24.0437 158.636 24.1614V36.2025C158.636 36.3175 158.577 36.4352 158.478 36.4907L147.848 42.5005C147.754 42.5538 147.629 42.5538 147.533 42.5005L144.802 40.904C144.72 40.8572 144.61 40.8609 144.531 40.904C143.777 41.3238 143.636 41.3725 142.929 41.6135C142.755 41.673 142.49 41.7658 143.019 42.0573L146.585 44.1222C146.924 44.3151 147.303 44.4104 147.691 44.4104C148.085 44.4104 148.457 44.3179 148.797 44.1222L159.426 38.1124C160.114 37.7192 160.532 36.9875 160.532 36.2056V24.1645C160.532 23.3823 160.114 22.6482 159.426 22.2574L148.797 16.226C148.464 16.0392 148.082 15.96 147.691 15.96L147.687 15.9536ZM150.531 24.5577C147.504 24.5577 145.701 25.8235 145.701 27.9281C145.701 30.2088 147.49 30.8387 150.395 31.121C153.871 31.4554 154.142 31.9569 154.142 32.629C154.142 33.7949 153.196 34.292 150.96 34.292C148.15 34.292 147.533 33.6029 147.326 32.2271C147.302 32.0798 147.186 31.9612 147.033 31.9612H145.653C145.57 31.963 145.49 31.9963 145.432 32.0541C145.373 32.1119 145.339 32.1898 145.337 32.2715C145.337 34.0292 146.31 36.1076 150.956 36.1076C154.32 36.1076 156.26 34.8132 156.26 32.5375C156.26 30.2877 154.693 29.6796 151.43 29.2552C148.137 28.8238 147.82 28.6173 147.82 27.8582C147.82 27.2319 148.086 26.3943 150.528 26.3943C152.709 26.3943 153.515 26.8565 153.845 28.3014C153.874 28.437 153.996 28.5479 154.139 28.5479H155.519C155.603 28.5479 155.686 28.4968 155.744 28.437C155.802 28.3732 155.843 28.3014 155.835 28.2151C155.622 25.7267 153.933 24.5562 150.531 24.5562V24.5577Z" fill="#83CD29"/>
<path d="M85.1969 0.16886C85.0782 0.169071 84.9615 0.199661 84.8585 0.25762C84.756 0.316569 84.6708 0.400746 84.6115 0.501858C84.5521 0.602971 84.5206 0.717531 84.5201 0.834252V17.7979C84.5201 17.9643 84.441 18.1135 84.2942 18.197C84.2223 18.2382 84.1405 18.26 84.0573 18.26C83.974 18.26 83.8922 18.2382 83.8203 18.197L80.9992 16.6006C80.7935 16.4836 80.5599 16.422 80.3222 16.422C80.0845 16.422 79.8509 16.4836 79.6452 16.6006L68.3842 22.9867C67.9633 23.2252 67.7067 23.6844 67.7067 24.1618V36.9343C67.7064 37.1681 67.7688 37.3977 67.8877 37.6002C68.0066 37.8026 68.1778 37.9706 68.3839 38.0873L79.6452 44.4737C79.8508 44.591 80.0844 44.6527 80.3222 44.6527C80.56 44.6527 80.7936 44.591 80.9992 44.4737L92.2605 38.0873C92.4667 37.9706 92.6378 37.8026 92.7567 37.6002C92.8756 37.3977 92.938 37.1681 92.9377 36.9343V5.09165C92.9377 4.60717 92.6686 4.15258 92.2383 3.9165L85.5357 0.235122C85.4303 0.17749 85.3136 0.167627 85.1969 0.16886ZM12.7543 16.1124C12.5395 16.121 12.3378 16.1577 12.1449 16.2677L0.883912 22.6538C0.677623 22.7703 0.506351 22.9383 0.387475 23.1408C0.268598 23.3432 0.206347 23.573 0.207037 23.8068L0.229934 40.9482C0.229934 41.1868 0.355397 41.4081 0.568685 41.5246C0.777896 41.6479 1.03729 41.6479 1.24556 41.5246L7.92555 37.7547C8.34899 37.5082 8.62501 37.0779 8.62501 36.6021V28.5967C8.62501 28.119 8.88064 27.6814 9.30251 27.4441L12.1461 25.8255C12.3516 25.708 12.5853 25.6468 12.823 25.6479C13.0608 25.6466 13.2947 25.7079 13.5002 25.8255L16.3426 27.4432C16.7638 27.6805 17.0195 28.1187 17.0195 28.5958V36.6009C17.0195 37.0773 17.3017 37.51 17.7189 37.7535L24.3989 41.5233C24.6091 41.6466 24.8678 41.6466 25.0758 41.5233C25.2828 41.4062 25.4145 41.1853 25.4145 40.947L25.4371 23.8062C25.4385 23.5723 25.3765 23.3423 25.2575 23.1397C25.1386 22.9371 24.967 22.7692 24.7602 22.6532L13.4993 16.2674C13.3089 16.1577 13.1062 16.1207 12.8898 16.1121L12.7543 16.1124ZM113.948 16.2677C113.71 16.2671 113.477 16.3283 113.271 16.4453L102.01 22.8317C101.589 23.0705 101.332 23.5072 101.332 23.9843V36.7568C101.332 37.237 101.608 37.6721 102.032 37.9095L113.203 44.1658C113.615 44.3969 114.118 44.4145 114.534 44.1874L121.304 40.4841C121.519 40.367 121.664 40.1482 121.665 39.9078C121.666 39.6674 121.539 39.451 121.326 39.3315L109.997 32.9451C109.785 32.8261 109.636 32.5854 109.636 32.3462V28.3523C109.636 28.1138 109.787 27.895 109.997 27.776L113.517 25.7802C113.727 25.6612 113.984 25.6612 114.195 25.7802L117.717 27.776C117.82 27.8342 117.906 27.9182 117.965 28.0194C118.025 28.1206 118.056 28.2355 118.056 28.3523V31.5012C118.055 31.618 118.086 31.7329 118.146 31.8341C118.205 31.9353 118.291 32.0193 118.394 32.0775C118.605 32.1971 118.861 32.1977 119.071 32.0775L125.819 28.2198C126.238 27.9807 126.496 27.5427 126.496 27.0672V23.9852C126.496 23.7516 126.434 23.522 126.315 23.3196C126.196 23.1172 126.025 22.9492 125.819 22.8323L114.626 16.4459C114.42 16.3288 114.186 16.2669 113.948 16.2677ZM80.2769 25.8033C80.3399 25.803 80.402 25.8181 80.4576 25.8473L84.3165 28.0426C84.4213 28.1021 84.4972 28.2121 84.4972 28.3308V32.7213C84.4972 32.8406 84.4219 32.9503 84.3165 33.0095L80.4576 35.2047C80.3525 35.2633 80.2242 35.2633 80.1188 35.2047L76.2599 33.0095C76.1548 32.95 76.0792 32.84 76.0792 32.7213V28.3302C76.0792 28.2112 76.1551 28.1021 76.2599 28.042L80.1188 25.847C80.1715 25.8171 80.2179 25.8033 80.2769 25.8033Z" fill="white"/>
<path d="M46.5835 16.2008C46.3457 16.2004 46.112 16.2616 45.9059 16.3783L34.6447 22.7426C34.2237 22.9811 33.9678 23.4406 33.9678 23.9177V36.6902C33.9671 36.9239 34.0294 37.1535 34.1483 37.356C34.2672 37.5584 34.4384 37.7264 34.6447 37.8428L45.9059 44.2291C46.1116 44.3464 46.3452 44.4082 46.583 44.4082C46.8208 44.4082 47.0543 44.3464 47.26 44.2291L58.5213 37.8428C58.7274 37.7262 58.8986 37.5582 59.0175 37.3557C59.1364 37.1533 59.1988 36.9235 59.1985 36.6898V23.9174C59.1985 23.4397 58.9425 22.9805 58.521 22.7422L47.2597 16.378C47.0539 16.2608 46.8201 16.1995 46.5822 16.2005L46.5835 16.2008ZM113.926 27.5988C113.881 27.5988 113.831 27.5988 113.79 27.6203L111.624 28.8624C111.584 28.8844 111.55 28.9165 111.526 28.9554C111.502 28.9942 111.489 29.0386 111.489 29.084V31.5233C111.489 31.6152 111.543 31.699 111.624 31.7452L113.79 32.9646C113.828 32.9873 113.871 32.9994 113.914 32.9994C113.958 32.9994 114.001 32.9873 114.038 32.9646L116.205 31.7452C116.285 31.6999 116.34 31.6152 116.34 31.5233V29.084C116.34 28.9921 116.285 28.9083 116.205 28.8621L114.038 27.62C113.998 27.5966 113.971 27.5985 113.925 27.5985L113.926 27.5988Z" fill="#83CD29"/>
</g>
<defs>
<clipPath id="clip0_139_445">
<rect width="161" height="45" fill="white"/>
</clipPath>
</defs>
</svg>
