<svg width="157" height="75" viewBox="0 0 157 75" fill="none" xmlns="http://www.w3.org/2000/svg">
<g clip-path="url(#clip0_139_418)" filter="url(#filter0_d_139_418)">
<path d="M13.7722 52.9714H6.59618V45.7975H14.1626C16.9312 45.7975 18.3169 47.0273 18.3169 49.4405C18.3169 51.7948 16.802 52.9727 13.7735 52.9727L13.7722 52.9714ZM18.9314 45.7141C17.9485 44.8396 16.5724 44.4023 14.8032 44.4023L4.52588 44.457V61.6196H6.59618L6.57693 54.3132H14.2244C16.1421 54.3132 17.6516 53.876 18.7527 53.0014C19.8538 52.1269 20.405 50.9108 20.405 49.3585C20.405 47.8062 19.9129 46.5901 18.93 45.7155L18.9314 45.7141ZM32.3306 58.0176C32.1331 58.5793 31.7949 59.0815 31.3477 59.477C30.4198 60.3788 29.0052 60.8257 27.0861 60.8257C25.3677 60.8257 24.0618 60.3885 23.127 59.5139C22.1922 58.6394 21.7454 57.4683 21.7454 56.0022C21.7454 55.2369 21.8664 54.5605 22.1069 53.9689C22.3351 53.3959 22.6936 52.8834 23.1544 52.4713C24.1057 51.6104 25.4172 51.1772 27.0861 51.1772C30.7978 51.1772 32.6303 52.7855 32.6303 56.0008C32.6303 56.766 32.5244 57.4355 32.3141 58.0149L32.3306 58.0176ZM32.6894 51.6842C31.4274 50.5404 29.5592 49.9679 27.0848 49.9679C24.7478 49.9679 22.94 50.5528 21.6657 51.721C20.515 52.7787 19.9404 54.2052 19.9404 56.0008C19.9404 57.784 20.5343 59.2228 21.722 60.3187C22.3778 60.909 23.1421 61.3368 24.0137 61.6005C24.8852 61.8642 25.9108 62.0104 27.0848 62.0104C29.5592 62.0104 31.4206 61.4447 32.7211 60.3133C33.8716 59.2802 34.4463 57.8482 34.4463 56.0158C34.4463 54.1711 33.8648 52.7322 32.7004 51.6979L32.6894 51.6842ZM48.361 58.5123C48.361 60.8352 46.2784 61.9776 42.1143 61.9776C40.8414 61.9776 39.7691 61.8956 38.8975 61.7371C38.026 61.5786 37.3194 61.3094 36.775 60.9391C36.3591 60.6586 36.0161 60.2839 35.7742 59.8459C35.5268 59.4046 35.366 58.8211 35.2931 58.1311L37.2177 58.1133C37.2177 59.022 37.5573 59.6916 38.2349 60.122C38.9635 60.6385 40.2517 60.8968 42.102 60.8968C45.0122 60.8968 46.4681 60.1726 46.4681 58.7214C46.4681 57.8742 45.98 57.2907 45.004 56.9723C44.806 56.9108 43.6293 56.7482 41.471 56.4845C39.3127 56.2208 37.971 55.983 37.439 55.7739C36.2898 55.3189 35.7152 54.5031 35.7152 53.3225C35.694 52.7905 35.8281 52.2637 36.1012 51.8058C36.3744 51.3478 36.775 50.9781 37.2548 50.7413C37.7635 50.509 38.3958 50.3273 39.1574 50.1975C39.919 50.0676 40.8001 50.0035 41.8023 50.0035C45.811 50.0035 47.8153 51.2537 47.8153 53.7543H45.9732C45.9732 51.9971 44.5641 51.1171 41.7459 51.1171C40.3122 51.1171 39.244 51.2947 38.5388 51.6636C37.8335 52.0326 37.4803 52.5655 37.4803 53.3034C37.4803 53.9921 37.9559 54.4895 38.9072 54.797C39.4639 54.9568 40.7424 55.1413 42.7454 55.3503C44.538 55.5102 45.767 55.7371 46.4351 56.0335C47.7081 56.5255 48.3597 57.359 48.3597 58.5396L48.361 58.5123ZM55.9713 61.6551L55.1837 61.7644L54.6915 61.8014C53.4296 61.8014 52.5195 61.6196 51.9627 61.2548C51.406 60.8899 51.1379 60.2545 51.1379 59.3418V51.512H48.8421V50.3601H51.1241L51.1421 46.6597H52.9085V50.3601H55.9851V51.5311L52.9085 51.512V59.1326C52.9085 59.6998 53.046 60.0919 53.3622 60.3078C53.6783 60.5237 54.2062 60.6317 54.9843 60.6317C55.0943 60.6453 55.218 60.6399 55.3555 60.618C55.493 60.5962 55.6951 60.5497 55.9673 60.4786L55.9865 61.6538L55.9713 61.6551ZM68.1884 59.0425C67.6979 59.4401 67.139 59.7461 66.5387 59.9457C65.9201 60.1547 65.2108 60.26 64.4079 60.26C60.7127 60.26 58.8679 58.7569 58.8679 55.7097C58.8679 54.2982 59.3408 53.1927 60.2838 52.3947C61.2269 51.5967 62.5603 51.1977 64.2773 51.1977C66.0067 51.1977 67.3196 51.5995 68.2159 52.4043C69.1122 53.2091 69.5603 54.2859 69.5603 55.6373C69.5603 57.1103 69.1025 58.2335 68.1884 59.0452V59.0425ZM71.3268 50.3546H69.5603L69.5411 52.2909C68.763 51.5051 68.2076 51.0064 67.8722 50.7987C66.8824 50.2589 65.6039 49.9884 64.034 49.9884C61.7341 49.9884 59.9786 50.5104 58.7689 51.5543C57.6197 52.5108 57.045 53.9006 57.045 55.7179C57.045 56.6143 57.1908 57.4164 57.4808 58.1229C57.7709 58.8293 58.1956 59.4278 58.7524 59.9184C59.9662 60.9254 61.6805 61.4297 63.8966 61.4297C66.558 61.4297 68.4331 60.7055 69.5603 59.2434V61.2479C69.5603 62.5256 69.1547 63.5162 68.3451 64.2158C67.5353 64.9154 66.2033 65.268 64.3488 65.268C62.6057 65.268 61.3629 65.0289 60.6371 64.552C60.0804 64.1858 59.6968 63.549 59.4878 62.6431H57.6801C57.8781 63.907 58.4156 64.8225 59.294 65.3869C60.3086 66.0373 62.0215 66.3626 64.4327 66.3626C69.0462 66.3626 71.3529 64.6586 71.3529 61.2493V50.3409L71.3268 50.3546ZM80.881 51.4956C80.3913 51.4133 79.8957 51.3703 79.399 51.3672C76.4957 51.3672 75.044 52.9495 75.044 56.1155V61.6196H73.2981L73.2788 50.356L75.0454 50.3737V52.3824H75.1375C75.4344 51.5899 75.9032 50.9886 76.5466 50.5814C77.2504 50.1715 78.3007 49.9871 79.6974 49.9871H80.8837V51.4942L80.881 51.4956ZM82.5251 55.2752C82.7478 53.9948 83.2482 53.0042 84.0263 52.3018C84.5349 51.8959 85.1082 51.5913 85.7502 51.3863C86.3922 51.1813 87.1166 51.0815 87.9194 51.0815C89.4893 51.0815 90.7706 51.5093 91.7658 52.366C92.7616 53.2228 93.2715 54.1916 93.2715 55.2765H82.5388L82.5251 55.2752ZM93.4445 51.8017C92.7988 51.1693 92.0093 50.7002 91.1432 50.4338C90.2276 50.1374 89.1581 49.9898 87.9332 49.9898C85.6443 49.9898 83.8696 50.5186 82.6076 51.5749C81.3456 52.6311 80.7147 54.0713 80.7147 55.8928C80.7147 57.7143 81.3195 59.1723 82.532 60.2272C83.8421 61.4078 85.6911 61.9981 88.0789 61.9981C89.0302 61.9981 89.9114 61.8888 90.7211 61.677C91.5308 61.4652 92.2387 61.1577 92.8449 60.7683C93.9092 60.0086 94.5815 59.0739 94.8662 57.9589H92.9416C92.2855 59.8719 90.6551 60.8476 88.0473 60.8476C86.2052 60.8476 84.7893 60.3775 83.7857 59.4347C82.9334 58.6148 82.5073 57.5818 82.5073 56.2973H95.0995C95.0995 54.387 94.5496 52.888 93.4117 51.788L93.4445 51.8017Z" fill="white"/>
<path d="M113.795 57.0173C113.795 60.361 111.081 62.0322 105.657 62.0322C102.406 62.0322 100.031 61.4583 98.5361 60.3036C97.2989 59.3567 96.7002 57.9123 96.7002 55.9719H98.8997C98.8997 59.0943 101.154 60.6548 105.67 60.6548C107.834 60.6548 109.4 60.335 110.364 59.6983C111.181 59.1339 111.601 58.2498 111.601 57.0474C111.601 55.8558 111.044 55.0209 109.931 54.5413C109.299 54.268 107.759 53.9578 105.312 53.5642C102.233 53.0969 100.235 52.631 99.321 52.165C97.9986 51.4777 97.3361 50.3108 97.3361 48.6642C97.3361 47.1297 97.886 45.9859 99.0239 45.2371C100.234 44.4145 102.313 44.0033 105.257 44.0033C110.577 44.0033 113.234 45.7591 113.234 49.2709H111.018C111.018 46.6405 109.042 45.326 105.107 45.326C103.128 45.326 101.678 45.5911 100.763 46.1185C99.8966 46.6842 99.4638 47.5123 99.4638 48.6082C99.4638 49.7519 100.021 50.5567 101.134 51.0241C101.725 51.2946 103.471 51.669 106.367 52.15C109.088 52.5558 110.923 53.0286 111.865 53.5711C113.164 54.2352 113.813 55.3844 113.813 57.02L113.795 57.0173ZM131.54 58.7254C130.717 59.3789 129.779 59.8751 128.774 60.1888C127.745 60.514 126.595 60.6767 125.321 60.6767C122.709 60.6767 120.619 59.9934 119.016 58.586C117.413 57.1785 116.61 55.3379 116.61 53.0191C116.61 50.6005 117.405 48.7188 118.995 47.3688C120.586 46.0187 122.707 45.3437 125.319 45.3437C127.98 45.3437 130.073 46.0488 131.595 47.4617C132.399 48.1491 132.992 48.9648 133.377 49.8735C133.762 50.7822 133.955 51.8412 133.955 53.0204C133.955 55.4254 133.149 57.3274 131.541 58.7267L131.54 58.7254ZM132.702 59.865C133.841 59.067 134.682 58.0886 135.228 56.964C135.774 55.8394 136.046 54.5044 136.046 53.0313C136.046 50.3668 135.155 48.2296 133.374 46.609C132.421 45.725 131.27 45.0677 129.937 44.6386C128.603 44.2095 127.05 43.9937 125.318 43.9937C121.954 43.9937 119.313 44.804 117.395 46.4259C115.478 48.0479 114.52 50.2452 114.52 53.0204C114.52 55.7219 115.486 57.9014 117.407 59.5589C119.327 61.2164 121.984 62.0458 125.336 62.0458C126.646 62.0458 127.79 61.957 128.767 61.7821C129.744 61.6072 130.572 61.3353 131.252 60.9704L134.481 63.1936L135.828 61.9638L132.702 59.8568V59.865ZM152.402 61.6181H137.476V44.4351L139.528 44.3981V60.1806H152.423L152.403 61.6154L152.402 61.6181Z" fill="#367FAF"/>
<path d="M87.8063 30.6012C88.077 28.3602 87.996 28.0323 89.6758 28.3958L90.0883 28.4327C91.3805 28.4914 93.0672 28.2277 94.0614 27.7686C96.1962 26.7848 97.4618 25.1396 95.3572 25.5714C90.5542 26.5552 90.2244 24.9401 90.2244 24.9401C95.2969 17.4601 97.4139 7.96465 95.586 5.64169C90.5955 -0.698625 81.9541 2.30072 81.8111 2.37861L81.7658 2.38681C80.8173 2.19141 79.7546 2.07253 78.5628 2.05476C76.3907 2.01924 74.7411 2.62047 73.4764 3.56469C73.4764 3.56469 58.0632 -2.7483 58.767 11.5037C58.9183 14.5345 63.1386 34.4409 68.17 28.4286C70.0094 26.2286 71.7855 24.3702 71.7855 24.3702C72.668 24.9537 73.7101 25.2502 74.8331 25.1436L74.9184 25.0712C74.8927 25.3566 74.9043 25.6441 74.9528 25.9266C73.6564 27.3655 74.0372 27.621 71.4473 28.1498C68.8257 28.6869 70.3654 29.6434 71.3716 29.8934C72.5911 30.1968 75.4133 30.6258 77.3173 27.9736L77.2416 28.2769C77.7503 28.6814 77.7159 31.1833 77.7874 32.9706C77.8589 34.758 77.9799 36.4277 78.3469 37.4116C78.714 38.3954 79.1442 40.9288 82.5535 40.2033C85.3991 39.5966 87.5766 38.7248 87.7746 30.6067" fill="#231F20"/>
<path d="M87.8063 30.6012C88.077 28.3602 87.996 28.0323 89.6759 28.3958L90.0883 28.4327C91.3805 28.4914 93.0672 28.2277 94.0614 27.7686C96.1962 26.7848 97.4618 25.1396 95.3572 25.5714C90.5542 26.5552 90.2243 24.9401 90.2243 24.9401C95.2969 17.4601 97.4139 7.96465 95.586 5.64169C90.5955 -0.698625 81.9541 2.30072 81.8111 2.37861L81.7658 2.38681C80.8173 2.19141 79.7546 2.07253 78.5628 2.05476C76.3907 2.01924 74.7411 2.62047 73.4764 3.56469C73.4764 3.56469 58.0632 -2.7483 58.767 11.5037C58.9183 14.5345 63.1386 34.4409 68.17 28.4286C70.0094 26.2286 71.7855 24.3702 71.7855 24.3702C72.668 24.9537 73.7101 25.2502 74.8331 25.1436L74.9184 25.0712C74.8927 25.3566 74.9043 25.6441 74.9528 25.9266C73.6564 27.3655 74.0372 27.621 71.4473 28.1498C68.8257 28.6869 70.3654 29.6434 71.3716 29.8934C72.5911 30.1968 75.4133 30.6258 77.3173 27.9736L77.2416 28.2769C77.7503 28.6814 77.7159 31.1833 77.7874 32.9706C77.8589 34.758 77.9799 36.4277 78.3469 37.4116C78.714 38.3954 79.1442 40.9288 82.5535 40.2033C85.3991 39.5966 87.5766 38.7248 87.7746 30.6067" stroke="#231F20" stroke-width="2.598"/>
<path d="M95.369 25.5712C90.5654 26.5551 90.2355 24.9399 90.2355 24.9399C95.3078 17.46 97.4248 7.96455 95.5969 5.64023C90.6067 -0.700093 81.9653 2.29926 81.8223 2.37715L81.7756 2.38535C80.827 2.18995 79.7644 2.07106 78.5725 2.0533C76.4005 2.01777 74.7509 2.61901 73.4861 3.56323C73.4861 3.56323 58.073 -2.74976 58.7768 11.5023C58.928 14.5358 63.1484 34.4395 68.1798 28.4271C70.0191 26.2271 71.7952 24.3687 71.7952 24.3687C72.6778 24.9523 73.7336 25.2487 74.8416 25.1421L74.9282 25.0698C74.9007 25.3431 74.9145 25.6095 74.9626 25.9252C73.6663 27.364 74.047 27.6196 71.4571 28.1483C68.8356 28.6854 70.3752 29.6419 71.3815 29.8919C72.6008 30.1953 75.4231 30.6243 77.327 27.9721L77.2515 28.2755C77.7601 28.6799 78.1175 30.9058 78.0556 32.9214C77.9938 34.9368 77.9567 36.3238 78.3581 37.4061C78.7595 38.4883 79.1554 40.9233 82.5647 40.1977C85.4103 39.591 86.8867 38.0195 87.0916 35.3987C87.2373 33.5349 87.5672 33.8109 87.5865 32.1466L87.8504 31.3582C88.1556 28.8302 87.8985 28.0172 89.6513 28.397L90.0637 28.434C91.3559 28.4927 93.0444 28.229 94.0369 27.7699C96.1716 26.786 97.4372 25.1408 95.3326 25.5726L95.369 25.5712Z" fill="#417BA2"/>
<path d="M81.8062 2.31438C81.2563 2.48109 90.3844 -0.996518 95.5639 5.59386C97.3927 7.91682 95.289 17.4136 90.2028 24.8936M77.5584 27.0198C77.4264 31.7203 77.5914 36.4523 78.0533 37.6028C78.5152 38.7534 79.5063 40.9916 82.9142 40.2647C85.7599 39.658 86.7963 38.4842 87.2445 35.8921L88.2962 27.6073L77.5584 27.0198ZM73.4893 3.4581C73.4893 3.4581 58.0651 -2.80843 58.78 11.4408C58.9174 14.4744 63.1515 34.3794 68.1829 28.3671C70.0223 26.1808 71.6842 24.4454 71.6842 24.4454L73.4893 3.4581Z" stroke="white" stroke-width="0.866" stroke-linecap="round" stroke-linejoin="round"/>
<path d="M90.2019 24.8813C90.2019 24.8813 90.5318 26.4978 95.3362 25.5126C97.4399 25.0808 96.161 26.7247 94.0404 27.7098C92.2887 28.516 88.3625 28.725 88.2966 27.6087C88.1316 24.7255 90.3641 25.6028 90.2019 24.8813ZM90.2019 24.8813C90.0562 24.2308 89.0581 23.5928 88.3983 22.0022C87.8209 20.6125 80.4937 9.96099 90.4328 11.5433C90.7971 11.4682 87.8402 2.14632 78.5389 1.99465C69.2377 1.84297 69.5456 13.3634 69.5456 13.3634" stroke="white" stroke-width="0.866" stroke-linecap="round" stroke-linejoin="bevel"/>
<path d="M74.955 25.8651C73.6587 27.304 74.0395 27.5595 71.4495 28.0883C68.828 28.6253 70.3677 29.5818 71.374 29.8319C72.5933 30.1353 75.4156 30.5643 77.3195 27.912C77.8996 27.1058 77.3168 25.8159 76.5194 25.4866C76.1345 25.3281 75.619 25.1313 74.9578 25.8651H74.955Z" stroke="white" stroke-width="0.866" stroke-linejoin="round"/>
<path d="M74.8698 25.8405C74.7392 24.9933 75.1502 23.9876 75.5887 22.807C76.2486 21.0388 77.7882 19.2706 76.5552 13.6627C75.6479 9.48413 69.5469 12.7923 69.5442 13.3594C69.5414 13.9265 69.8191 16.2316 69.4425 18.9168C68.9476 22.4203 71.6832 25.3841 74.8354 25.0794" stroke="white" stroke-width="0.866" stroke-linecap="round" stroke-linejoin="round"/>
<path d="M73.4174 13.2759C73.3899 13.4699 73.7748 13.9865 74.2739 14.0548C74.7729 14.1231 75.2018 13.72 75.2279 13.5273C75.254 13.3346 74.8705 13.1201 74.3701 13.0491C73.8697 12.978 73.4422 13.0805 73.4161 13.2745L73.4174 13.2759Z" fill="white" stroke="white" stroke-width="0.289"/>
<path d="M88.6409 12.881C88.6684 13.075 88.2835 13.5915 87.7845 13.6598C87.2854 13.7282 86.8565 13.3251 86.829 13.1324C86.8015 12.9398 87.1864 12.7252 87.6868 12.6569C88.1872 12.5885 88.6147 12.6883 88.6422 12.8824L88.6409 12.881Z" fill="white" stroke="white" stroke-width="0.144"/>
<path d="M90.4294 11.542C90.5119 13.0587 90.0995 14.0945 90.0487 15.7097C89.9717 18.0599 91.1759 20.7478 89.3613 23.4397" stroke="white" stroke-width="0.866" stroke-linecap="round" stroke-linejoin="round"/>
</g>
<defs>
<filter id="filter0_d_139_418" x="0" y="0" width="157" height="75" filterUnits="userSpaceOnUse" color-interpolation-filters="sRGB">
<feFlood flood-opacity="0" result="BackgroundImageFix"/>
<feColorMatrix in="SourceAlpha" type="matrix" values="0 0 0 0 0 0 0 0 0 0 0 0 0 0 0 0 0 0 127 0" result="hardAlpha"/>
<feOffset dy="4"/>
<feGaussianBlur stdDeviation="2"/>
<feComposite in2="hardAlpha" operator="out"/>
<feColorMatrix type="matrix" values="0 0 0 0 0 0 0 0 0 0 0 0 0 0 0 0 0 0 0.25 0"/>
<feBlend mode="normal" in2="BackgroundImageFix" result="effect1_dropShadow_139_418"/>
<feBlend mode="normal" in="SourceGraphic" in2="effect1_dropShadow_139_418" result="shape"/>
</filter>
<clipPath id="clip0_139_418">
<rect width="149" height="67" fill="white" transform="translate(4)"/>
</clipPath>
</defs>
</svg>
