<svg width="286" height="186" viewBox="0 0 286 186" fill="none" xmlns="http://www.w3.org/2000/svg">
<path d="M284.126 5.91553C285.303 7.8164 285.563 10.2814 284.894 13.298C284.225 16.3171 282.634 19.8426 280.175 23.803C275.258 31.7221 266.93 41.2835 255.826 51.863C233.625 73.016 200.406 98.1644 161.43 122.285C122.455 146.406 85.1275 164.916 56.2915 175.349C41.8696 180.566 29.5971 183.754 20.3161 184.621C15.6745 185.055 11.8096 184.906 8.80913 184.158C5.8111 183.411 3.72097 182.078 2.54458 180.178C1.36819 178.277 1.10817 175.812 1.77681 172.795C2.44599 169.776 4.03677 166.25 6.4959 162.29C11.4131 154.371 19.7409 144.81 30.8445 134.23C53.0457 113.077 86.2651 87.9287 125.241 63.808C164.216 39.6873 201.543 21.1766 230.379 10.7443C244.801 5.52676 257.074 2.33939 266.355 1.47164C270.996 1.03767 274.861 1.18683 277.862 1.93482C280.86 2.68221 282.95 4.01466 284.126 5.91553Z" stroke="#070707" stroke-opacity="0.7"/>
</svg>
