<svg width="79" height="79" viewBox="0 0 79 79" fill="none" xmlns="http://www.w3.org/2000/svg">
<circle cx="39.2937" cy="39.2937" r="39.2937" fill="#212121"/>
<path d="M22.251 48.5368C21.5335 48.951 21.2877 49.8684 21.7019 50.5858C22.1162 51.3033 23.0335 51.5491 23.751 51.1349L22.251 48.5368ZM57.6492 31.0564C57.8636 30.2562 57.3888 29.4337 56.5886 29.2193L43.5486 25.7252C42.7484 25.5108 41.9259 25.9857 41.7114 26.7859C41.497 27.5861 41.9719 28.4086 42.7721 28.623L54.3632 31.7288L51.2574 43.3199C51.043 44.1201 51.5179 44.9426 52.3181 45.1571C53.1183 45.3715 53.9408 44.8966 54.1552 44.0964L57.6492 31.0564ZM23.751 51.1349L56.9503 31.9672L55.4503 29.3691L22.251 48.5368L23.751 51.1349Z" fill="white"/>
</svg>
