<svg width="78" height="79" viewBox="0 0 78 79" fill="none" xmlns="http://www.w3.org/2000/svg">
<path d="M51.1875 59.0625C51.1875 60.408 50.0979 61.5 48.75 61.5H29.25C27.9021 61.5 26.8125 60.408 26.8125 59.0625C26.8125 57.717 27.9021 56.625 29.25 56.625H48.75C50.0979 56.625 51.1875 57.717 51.1875 59.0625ZM48.75 63.9375H29.25C27.9021 63.9375 26.8125 65.0295 26.8125 66.375C26.8125 67.7205 27.9021 68.8125 29.25 68.8125H48.75C50.0979 68.8125 51.1875 67.7205 51.1875 66.375C51.1875 65.0295 50.0979 63.9375 48.75 63.9375ZM36.5625 71.25V73.6875C36.5625 75.033 37.6545 76.125 39 76.125C40.3455 76.125 41.4375 75.033 41.4375 73.6875V71.25H36.5625ZM63.375 27.375C63.375 39.5625 51.1875 46.875 51.1875 51.75C51.1875 53.0955 50.0955 54.1875 48.75 54.1875H29.25C27.9045 54.1875 26.8125 53.0955 26.8125 51.75C26.8125 46.875 14.625 39.5625 14.625 27.375C14.625 13.9127 25.5377 3 39 3C52.4623 3 63.375 13.9127 63.375 27.375ZM41.4375 10.3125C41.4375 8.967 40.3479 7.875 39 7.875C28.2482 7.875 19.5 16.6232 19.5 27.375C19.5 28.7205 20.5896 29.8125 21.9375 29.8125C23.2854 29.8125 24.375 28.7205 24.375 27.375C24.375 19.3093 30.9343 12.75 39 12.75C40.3479 12.75 41.4375 11.658 41.4375 10.3125Z" fill="white"/>
</svg>
