<svg width="549" height="596" viewBox="0 0 549 596" fill="none" xmlns="http://www.w3.org/2000/svg">
<path d="M185.054 153.086C187.577 151.872 189.812 151.388 191.761 151.633C193.689 151.853 195.413 152.965 196.931 154.97L197.049 155.127C198.884 157.548 199.662 159.766 199.384 161.78C199.132 163.774 198.184 165.66 196.539 167.438C194.901 169.17 192.409 171.345 189.063 173.961L188.985 174.02L187.11 175.44L169.62 188.625L147.728 159.72L168.938 143.656C171.978 141.394 174.86 140.194 177.584 140.057C180.308 139.92 182.518 140.972 184.214 143.211L184.332 143.368C185.614 145.06 186.308 146.707 186.414 148.307C186.519 149.907 186.066 151.5 185.054 153.086ZM179.835 147.818C178.928 146.62 178.007 145.945 177.072 145.793C176.163 145.621 175.256 145.775 174.35 146.257C173.444 146.738 172.236 147.55 170.726 148.694L170.647 148.753L155.843 159.966L161.642 167.622C162.859 166.741 164.054 165.856 165.226 164.969C166.398 164.081 167.514 163.256 168.576 162.493C171.023 160.639 172.335 159.666 172.511 159.574L176.613 156.467C178.201 155.264 179.321 154.335 179.971 153.678C180.647 153.002 181.039 152.193 181.145 151.252C181.258 150.265 180.822 149.12 179.835 147.818ZM162.026 168.13L162.104 168.07L161.997 168.091L162.026 168.13ZM187.626 168.411C189.422 167.05 190.714 165.969 191.501 165.168C192.268 164.342 192.675 163.418 192.723 162.399C192.776 161.334 192.261 160.085 191.176 158.653C190.131 157.273 189.108 156.49 188.108 156.305C187.113 156.075 186.124 156.23 185.14 156.77C184.137 157.285 182.736 158.222 180.939 159.583L180.9 159.613L164.807 171.801L171.434 180.551C177.97 175.601 182.716 172.047 185.672 169.89L187.626 168.411Z" fill="#070707"/>
<path d="M248.563 145.162L242.162 147.63L234.878 141.405L212.43 150.06L211.209 159.563L204.809 162.031L210.099 121.13L217.185 118.398L248.563 145.162ZM215.692 125.013L213.297 143.319L229.71 136.991L215.692 125.013Z" fill="#070707"/>
<path d="M249.507 126.888C249.199 123.275 249.882 119.938 251.556 116.878C253.263 113.815 255.723 111.327 258.937 109.414C262.148 107.469 265.804 106.322 269.906 105.973C274.82 105.554 279.237 106.408 283.155 108.533C287.106 110.656 290.103 113.893 292.145 118.243L285.513 118.906C284.675 117.141 283.386 115.677 281.648 114.514C279.91 113.35 278.02 112.527 275.979 112.045C273.968 111.528 272.116 111.341 270.424 111.486C267.885 111.702 265.441 112.451 263.091 113.732C260.771 114.979 258.917 116.694 257.529 118.878C256.174 121.058 255.615 123.548 255.854 126.348C256.097 129.212 257.021 131.592 258.625 133.488C260.229 135.384 262.263 136.752 264.728 137.592C267.225 138.428 269.89 138.726 272.722 138.485C274.382 138.344 276.097 137.886 277.867 137.113C279.634 136.307 281.261 135.201 282.748 133.796C284.235 132.391 285.373 130.737 286.162 128.834L293.046 128.248C291.611 132.96 289.155 136.66 285.679 139.349C282.236 142.036 278.057 143.588 273.142 144.006C269.074 144.352 265.276 143.84 261.75 142.468C258.256 141.093 255.409 139.04 253.21 136.31C251.043 133.576 249.808 130.435 249.507 126.888Z" fill="#070707"/>
<path d="M312.757 107.373L307.171 135.588L341.116 112.986L347.365 114.223L340.324 149.793L334.075 148.556L339.66 120.341L305.715 142.942L299.467 141.705L306.508 106.136L312.757 107.373Z" fill="#070707"/>
<path d="M396.094 136.9L379.667 169.226L373.989 166.34L387.863 139.038L372.486 131.224C369.787 135.093 367.194 138.502 364.706 141.451C362.247 144.415 359.556 147.115 356.633 149.55C354.797 150.926 352.885 151.805 350.896 152.187C348.921 152.539 346.994 152.366 345.114 151.667L348 145.988C349.66 146.832 351.665 146.238 354.016 144.208C359.721 138.606 365.025 131.738 369.928 123.603L396.094 136.9Z" fill="#070707"/>
<path d="M413.934 150.131L394.508 171.344L435.255 169.656L439.952 173.958L415.464 200.699L410.766 196.398L430.191 175.185L389.445 176.873L384.747 172.571L409.236 145.829L413.934 150.131Z" fill="#070707"/>
<path d="M460.852 205.466C458.967 202.33 458.13 199.384 458.341 196.627C458.569 193.899 460.096 191.685 462.924 189.985L465.347 194.017C463.763 194.931 462.831 196.234 462.552 197.926C462.318 199.63 462.782 201.447 463.943 203.379C465.121 205.339 466.525 206.629 468.156 207.25C469.815 207.854 471.428 207.684 472.996 206.742L475.419 210.774C472.647 212.44 469.981 212.727 467.42 211.637C464.876 210.575 462.686 208.517 460.852 205.466ZM429.433 207.599L468.979 217.56L472.261 223.02L441.183 241.7L437.901 236.24L462.554 221.422L423.008 211.461L419.726 206.002L450.804 187.322L454.086 192.782L429.433 207.599Z" fill="#070707"/>
<path d="M469.044 267.422L454.643 295.074L452.689 285.521L465.15 262.567L448.684 265.934L447.407 259.693L482.932 252.429L484.208 258.67L470.479 261.477L488.027 277.344L490.01 287.041L469.044 267.422Z" fill="#070707"/>
<path d="M489.316 340.553L459.343 321.039C457.586 320.049 456.273 318.244 455.403 315.624C454.532 313.037 454.166 310.095 454.306 306.799C454.333 306.146 454.371 305.641 454.419 305.284L459.951 305.518C459.789 309.336 460.361 311.273 461.667 311.329C462.058 311.345 462.473 311.216 462.909 310.94L491.147 297.324L490.854 304.227L464.27 317.03L489.608 333.65L489.316 340.553Z" fill="#070707"/>
<path d="M449.837 388.159C445.538 386.697 443.04 383.699 442.343 379.164C441.645 374.63 442.332 369.248 444.401 363.016C445.904 358.49 447.806 354.785 450.106 351.9C452.397 349.046 454.91 347.127 457.646 346.143C460.383 345.158 463.192 345.145 466.076 346.102L464.083 352.101C460.89 351.041 458.03 351.777 455.501 354.311C452.994 356.886 451.015 360.359 449.563 364.73C448.173 368.812 447.593 372.475 447.824 375.718C448.045 378.993 449.421 381.068 451.953 381.943C452.945 382.272 453.766 382.287 454.416 381.987C455.098 381.697 455.851 380.725 456.676 379.071C457.531 377.428 458.587 374.715 459.843 370.933L462.7 362.33L468.001 364.09L465.113 372.786L464.357 375.065C463.718 376.987 463.266 378.609 462.999 379.932C462.762 381.265 462.821 382.437 463.173 383.449C463.515 384.492 464.306 385.219 465.546 385.631C467.344 386.228 469.146 385.312 470.951 382.883C472.756 380.453 474.338 377.295 475.697 373.41C477.211 369.059 477.966 365.179 477.962 361.77C477.979 358.403 476.856 356.343 474.593 355.592L476.585 349.593C481.049 351.075 483.326 354.327 483.414 359.347C483.523 364.409 482.671 369.668 480.859 375.124C479.757 378.441 478.516 381.454 477.135 384.162C475.774 386.911 473.974 389.119 471.734 390.784C469.495 392.45 466.887 392.789 463.91 391.8C460.593 390.698 458.67 388.717 458.14 385.856C455.87 388.441 453.133 389.219 449.93 388.19L449.883 388.174L449.837 388.159Z" fill="#070707"/>
<path d="M450.62 406.744L435.89 428.132L447.23 435.942L443.617 441.188L413.754 420.622L417.367 415.375L431.047 424.797L445.778 403.409L432.097 393.987L435.71 388.741L465.573 409.307L461.96 414.554L450.62 406.744Z" fill="#070707"/>
<path d="M394.809 458.934L414.424 442.213L407.462 434.047L384.842 453.586L381.187 449.298L408.782 425.775L432.304 453.37L404.709 476.893L401.017 472.636L423.801 453.214L418.079 446.502L398.464 463.222L394.809 458.934Z" fill="#070707"/>
<path d="M363.713 498.761L357.958 501.491L345.044 474.263L341.458 475.964L336.103 464.674L342.08 461.84L344.81 467.595L377.173 452.246L392.712 485.007L386.956 487.737L374.042 460.509L350.799 471.533L363.713 498.761Z" fill="#070707"/>
<path d="M320.008 511.521C315.913 512.188 312.103 511.965 308.579 510.851C305.028 509.774 302.1 507.951 299.795 505.381C297.462 502.848 296.005 499.793 295.422 496.214C294.844 492.667 295.259 489.323 296.667 486.181C298.043 483.044 300.225 480.389 303.214 478.214C306.207 476.071 309.752 474.667 313.846 474C317.812 473.354 321.587 473.566 325.17 474.638C328.759 475.741 331.752 477.554 334.148 480.076C336.55 482.631 338.037 485.665 338.61 489.179C339.187 492.726 338.743 496.091 337.276 499.276C335.808 502.461 333.562 505.127 330.536 507.275C327.483 509.46 323.973 510.875 320.008 511.521ZM314.785 479.457C312.173 479.882 309.791 480.8 307.638 482.21C305.484 483.62 303.861 485.44 302.768 487.67C301.675 489.9 301.354 492.401 301.806 495.174C302.247 497.882 303.358 500.134 305.14 501.929C306.89 503.729 309.028 504.969 311.555 505.65C314.082 506.33 316.651 506.458 319.263 506.033C322.1 505.571 324.592 504.618 326.741 503.176C328.856 501.74 330.41 499.898 331.401 497.651C332.397 495.437 332.672 492.96 332.226 490.219C331.769 487.414 330.685 485.125 328.973 483.352C327.228 481.584 325.112 480.373 322.622 479.719C320.138 479.098 317.525 479.011 314.785 479.457Z" fill="#070707"/>
<path d="M251.762 493.334C249.103 492.457 247.157 491.255 245.925 489.726C244.689 488.23 244.22 486.233 244.518 483.735L244.541 483.54C244.901 480.524 245.879 478.387 247.477 477.13C249.042 475.869 251.033 475.169 253.452 475.03C255.833 474.919 259.137 475.083 263.361 475.521L263.458 475.533L265.794 475.811L287.537 478.454L283.242 514.459L256.822 511.308C253.063 510.826 250.156 509.69 248.1 507.898C246.043 506.107 245.182 503.816 245.514 501.027L245.538 500.832C245.789 498.724 246.432 497.057 247.466 495.831C248.501 494.606 249.933 493.773 251.762 493.334ZM251.864 500.748C251.686 502.24 251.881 503.365 252.448 504.124C252.983 504.879 253.744 505.397 254.73 505.679C255.716 505.961 257.15 506.215 259.031 506.439L259.129 506.451L277.569 508.65L278.707 499.114C277.218 498.904 275.744 498.711 274.285 498.537C272.825 498.363 271.449 498.182 270.155 497.995C267.106 497.631 265.486 497.422 265.295 497.366L260.186 496.757C258.208 496.521 256.757 496.413 255.833 496.435C254.877 496.452 254.034 496.763 253.304 497.367C252.537 497.999 252.058 499.126 251.864 500.748ZM278.782 498.481L278.685 498.47L278.776 498.53L278.782 498.481ZM260.545 480.515C258.307 480.248 256.627 480.13 255.504 480.16C254.378 480.223 253.444 480.605 252.703 481.306C251.925 482.036 251.43 483.293 251.217 485.077C251.012 486.796 251.205 488.069 251.797 488.897C252.353 489.753 253.173 490.327 254.256 490.621C255.336 490.947 256.995 491.244 259.233 491.511L259.282 491.517L279.328 493.908L280.628 483.009C272.486 482.038 266.603 481.303 262.978 480.805L260.545 480.515Z" fill="#070707"/>
</svg>
